<?xml version="1.0" encoding="UTF-8"?><svg id="Capa_2" xmlns="http://www.w3.org/2000/svg" viewBox="0 0 1080 955.88"><defs><style>.cls-1{fill:#fff;}</style></defs><path class="cls-1" d="M1070.91,133.52c-7.74-9.56-19.39-15.12-31.69-15.12H258.88c-1.06,0-2.1,.08-3.14,.16l-14.77-84.78C237.57,14.25,220.62,0,200.79,0H40.78C18.26,0,0,18.26,0,40.78s18.26,40.78,40.78,40.78h125.72l112.48,645.73c3.4,19.53,20.35,33.78,40.17,33.78H954.83c22.52,0,40.78-18.26,40.78-40.78s-18.26-40.78-40.78-40.78H353.45l-13.48-77.37H953.67c19.25,0,35.88-13.46,39.89-32.3l85.55-402.18c2.56-12.04-.45-24.58-8.19-34.15Zm-150.27,387.06H325.76l-55.85-320.62H988.85l-68.21,320.62Z"/><circle class="cls-1" cx="359.71" cy="875.87" r="80.01"/><circle class="cls-1" cx="917.57" cy="875.87" r="80.01" transform="translate(-350.59 905.35) rotate(-45)"/></svg>